<?xml version="1.0" standalone="no"?>
<!DOCTYPE svg PUBLIC "-//W3C//DTD SVG 1.1//EN" "http://www.w3.org/Graphics/SVG/1.1/DTD/svg11.dtd" >
<svg xmlns="http://www.w3.org/2000/svg" xmlns:xlink="http://www.w3.org/1999/xlink" version="1.1">
<metadata>
Created by FontForge 20161003 at Thu Jul  5 16:04:00 2018
 By www-data
Created by Abraham PlaPi, 2017
</metadata>
<defs>
<font id="Lugos-Regular" horiz-adv-x="161" >
  <font-face 
    font-family="Lugos"
    font-weight="500"
    font-stretch="normal"
    units-per-em="1000"
    panose-1="2 11 6 3 4 3 2 2 2 4"
    ascent="800"
    descent="-200"
    x-height="501"
    cap-height="754"
    bbox="-76 -529.001 978 939.667"
    underline-thickness="0"
    underline-position="0"
    unicode-range="U+0020-00FA"
  />
<missing-glyph horiz-adv-x="727" 
d="M28 0l312 754h48l312 -754h-114l-64 154h-318l-62 -154h-114zM479 258l-115 280l-115 -280h230z" />
    <glyph glyph-name=".notdef" horiz-adv-x="727" 
d="M28 0l312 754h48l312 -754h-114l-64 154h-318l-62 -154h-114zM479 258l-115 280l-115 -280h230z" />
    <glyph glyph-name="space" unicode=" " horiz-adv-x="250" 
 />
    <glyph glyph-name="exclam" unicode="!" horiz-adv-x="158" 
d="M79 172c17.333 0 32.5 -6.5 45.5 -19.5s19.5 -28.167 19.5 -45.5c0 -18.667 -6.33301 -34.167 -19 -46.5s-28 -18.5 -46 -18.5c-18.667 0 -34.167 6.16699 -46.5 18.5s-18.5 27.833 -18.5 46.5c0 17.333 6.16699 32.5 18.5 45.5s27.833 19.5 46.5 19.5zM28 240v554h103
v-554h-103z" />
    <glyph glyph-name="ampersand" unicode="&#x26;" horiz-adv-x="725" 
d="M229 389c-33.333 -16.667 -59.499 -36.167 -78.499 -58.5s-28.5 -52.5 -28.5 -90.5c-0.666992 -41.333 12.666 -75 39.999 -101s61.333 -39 102 -39c28 0 53.667 6.5 77 19.5s44.333 29.5 63 49.5zM328.001 432l136.002 -167.996c24 56.667 37 118.667 39 186l105 -3
c-2 -47.333 -8.66699 -94.5 -20 -141.5s-28.666 -91.5 -51.999 -133.5c9.33301 -12 20.333 -24.5 33 -37.5s27.667 -19.5 45 -19.5c11.333 0 23.333 4.66699 36 14l68 -80c-32.667 -26 -67.334 -39 -104.001 -39c-30.667 0 -57.5 7.16699 -80.5 21.5
s-43.833 32.5 -62.5 54.5c-60 -60 -129 -90 -207 -90c-69.333 0 -128.333 23.167 -177 69.5s-73 104.166 -73 173.499c-2 55.333 12 101.166 42 137.499s68.667 65.5 116 87.5c-12.667 16.667 -24.334 36.167 -35.001 58.5s-16 44.5 -16 66.5
c-2.66699 48 12.833 88.833 46.5 122.5s74.5 50.5 122.5 50.5c45.333 0 84.666 -15.167 117.999 -45.5s50 -68.833 50 -115.5c0 -44.667 -13.167 -79.834 -39.5 -105.501s-56.5 -46.834 -90.5 -63.501zM269.003 507.004c19.333 9.33301 38.334 21.333 57.001 36s28 34 28 58
c0 16.667 -6.5 30.167 -19.5 40.5s-27.833 15.5 -44.5 15.5c-18.667 0 -34.334 -6 -47.001 -18s-18.667 -27.333 -18 -46c0 -14 5.33301 -29.333 16 -46s20 -30 28 -40z" />
    <glyph glyph-name="quotesingle" unicode="'" horiz-adv-x="270" 
d="M81 679h159l-105 -107h-107z" />
    <glyph glyph-name="parenleft" unicode="(" horiz-adv-x="290" 
d="M28 376c0 72 13.333 145.999 40 221.999s73.334 134 140.001 174l54 -89c-50 -30.667 -84.167 -76.167 -102.5 -136.5s-27.5 -117.166 -27.5 -170.499c0 -52.667 9.33301 -109.334 28 -170.001s52.667 -105.667 102 -135l-54 -88
c-66.667 38.667 -113.334 95.834 -140.001 171.501s-40 149.5 -40 221.5z" />
    <glyph glyph-name="parenright" unicode=")" horiz-adv-x="262" 
d="M235 376c0 -72 -13.666 -145.669 -40.999 -221.002s-74 -132.666 -140 -171.999l-54 88c49.333 29.333 83.5 74.333 102.5 135s28.5 117.334 28.5 170.001c-0.666992 52.667 -10.334 109.5 -29.001 170.5s-52.667 106.5 -102 136.5l54 89c64.667 -40 111 -98 139 -174
s42 -150 42 -222z" />
    <glyph glyph-name="plus" unicode="+" horiz-adv-x="418" 
d="M28 382h128v128h106v-128h128v-107h-128v-128h-106v128h-128v107z" />
    <glyph glyph-name="comma" unicode="," horiz-adv-x="170" 
d="M75 131c17.333 0 32.5 -6.49902 45.5 -19.499s19.5 -28.5 19.5 -46.5c0 -10 -2.33301 -20 -7 -30l-25 -99h-33v64c-18.667 0 -34.167 6.33301 -46.5 19s-18.5 28 -18.5 46c0 17.333 6.16699 32.666 18.5 45.999s27.833 20 46.5 20z" />
    <glyph glyph-name="hyphen" unicode="-" horiz-adv-x="418" 
d="M28 382h362v-107h-362v107z" />
    <glyph glyph-name="period" unicode="." horiz-adv-x="182" 
d="M81 136c19.333 0 36 -7 50 -21s21 -30.667 21 -50s-7 -35.666 -21 -48.999s-30.667 -20 -50 -20s-36 6.66699 -50 20s-21 29.666 -21 48.999s7 36 21 50s30.667 21 50 21z" />
    <glyph glyph-name="zero" unicode="0" horiz-adv-x="651" 
d="M14 367c0 50.667 7.16797 100.834 21.501 150.501s36.166 92.5 65.499 128.5c58.667 72 133 108 223 108c48 0 91.333 -10.833 130 -32.5s72 -50.5 100 -86.5c56 -76.667 84 -167.667 84 -273c0 -52 -7.5 -102.333 -22.5 -151s-37.167 -91.334 -66.5 -128.001
c-56.667 -71.333 -130.334 -107 -221.001 -107c-50 0 -94.167 10.667 -132.5 32s-71.166 50 -98.499 86c-55.333 74.667 -83 165.667 -83 273zM119.001 367c0 -78.667 18.333 -145.334 55 -200.001c38.667 -57.333 89.334 -86 152.001 -86
c59.333 0 108.666 25.667 147.999 77c38.667 54 58 122.667 58 206c0 77.333 -18.667 143.333 -56 198c-38 57.333 -88.333 86.333 -151 87c-62 0 -111 -26 -147 -78c-19.333 -28 -34 -59.667 -44 -95s-15 -71.666 -15 -108.999z" />
    <glyph glyph-name="one" unicode="1" 
d="M28 754h105v-754h-105v754z" />
    <glyph glyph-name="two" unicode="2" horiz-adv-x="500" 
d="M138 538l-105.998 15.999c4 45.333 19.667 86 47 122c19.333 26.667 43.666 48.5 72.999 65.5s62 25.5 98 25.5c62.667 0 113.667 -22.333 153 -67c39.333 -42.667 59 -99.667 59 -171c0 -78 -31.833 -155.167 -95.5 -231.5s-120.5 -140.833 -170.5 -193.5h276v-104h-444
v89c28.667 28 62 58.333 100 91s73.833 67.334 107.5 104.001s62.5 75.167 86.5 115.5s36 81.833 36 124.5c0 38.667 -10 72 -30 100c-21.333 25.333 -47.333 37.666 -78 36.999c-37.333 0 -67 -17.667 -89 -53c-14.667 -21.333 -22.334 -44.666 -23.001 -69.999z" />
    <glyph glyph-name="three" unicode="3" horiz-adv-x="479" 
d="M99 689c36 52 84.999 78.001 146.999 78.001c52 0 95.333 -19 130 -57c34 -37.333 51.333 -86 52 -146c0 -57.333 -16.667 -105.666 -50 -144.999c28 -24 48.333 -53.333 61 -88s19 -69.667 19 -105c0 -32.667 -5 -63.834 -15 -93.501s-24.667 -55.834 -44 -78.501
c-40 -43.333 -91 -65 -153 -65c-72 0 -129 29.667 -171 89c-29.333 36 -45 77 -47 123c16.667 2.66699 33.834 5.5 51.501 8.5s35.5 5.83301 53.5 8.5c0.666992 -26.667 8.66699 -50.667 24 -72c21.333 -35.333 50.333 -53 87 -53c32.667 0 58.667 12.667 78 38
c20.667 25.333 31 56.666 31 93.999c0 31.333 -9.33301 61.833 -28 91.5s-45.667 44.5 -81 44.5v52.5v53.5c25.333 0 45 10.333 59 31s21 42.667 21 66c0 26.667 -7.66699 49.667 -23 69c-14.667 18.667 -33.667 28 -57 28c-28 0 -49 -13 -63 -39
c-11.333 -14.667 -17.666 -32.334 -18.999 -53.001c-17.333 2.66699 -34.833 5.33398 -52.5 8.00098s-34.834 5.33398 -51.501 8.00098c2 38 15.667 72.667 41 104z" />
    <glyph glyph-name="four" unicode="4" horiz-adv-x="452" 
d="M321 0v226h-300v84l335 457h69v-767h-104zM321 332v210l-154 -210h154z" />
    <glyph glyph-name="five" unicode="5" horiz-adv-x="581" 
d="M568 297c0 -87.333 -25.335 -160.002 -76.002 -218.002c-54 -60 -120.667 -90 -200 -90c-81.333 0 -148.666 30 -201.999 90c-50.667 58.667 -76 131.334 -76 218.001c0 38.667 5.66699 76.334 17 113.001l100 -32c-8 -26.667 -12.333 -53.667 -13 -81
c0 -60 17 -110 51 -150c31.333 -36 72.333 -54 123 -54c48 0 88 18 120 54c34 40 51.333 90 52 150c0 61.333 -17.333 111.333 -52 150c-33.333 37.333 -73.333 56 -120 56c-41.333 0 -80.333 -16.667 -117 -50l-89 43l29 258h297v-105h-204l-5 -57
c28.667 10 58.334 15 89.001 15c79.333 0 146 -30.667 200 -92c50.667 -59.333 76 -132 76 -218z" />
    <glyph glyph-name="six" unicode="6" horiz-adv-x="455" 
d="M14 228c0 43.333 8.83203 81.501 26.499 114.501s37.167 67.5 58.5 103.5l176 308h121l-165 -287c62 -2 113.333 -26.667 154 -74c38 -45.333 57 -101 57 -167c0 -32.667 -5.16699 -63.834 -15.5 -93.501s-25.166 -55.834 -44.499 -78.501c-40 -43.333 -91 -65 -153 -65
c-66 0 -118.667 24 -158 72c-38 46.667 -57 102.334 -57 167.001zM227.999 93.001c35.333 0 62.5 14.167 81.5 42.5s28.5 58.166 28.5 89.499s-9.33301 61.833 -28 91.5s-46 44.5 -82 44.5s-63.167 -14.333 -81.5 -43s-27.5 -58.667 -27.5 -90s9.16699 -61.666 27.5 -90.999
s45.5 -44 81.5 -44z" />
    <glyph glyph-name="seven" unicode="7" horiz-adv-x="493" 
d="M138 3h-117l179 359h-72v51.5v53.5h125l90 182h-322v105h465v-53l-117 -234h41v-52.5v-52.5h-93z" />
    <glyph glyph-name="eight" unicode="8" horiz-adv-x="469" 
d="M61 585c0 57.333 16.668 103.998 50.001 139.998c30.667 35.333 72 53 124 53c51.333 0 93.666 -19.667 126.999 -59c30.667 -36 46 -81.333 46 -136c0 -26 -4.33301 -51.667 -13 -77s-21.667 -47.333 -39 -66c30.667 -24 53.834 -54.333 69.501 -91
s23.5 -73.667 23.5 -111c0 -31.333 -5.16699 -62.166 -15.5 -92.499s-25.166 -56.5 -44.499 -78.5c-40.667 -44.667 -91.667 -67 -153 -67c-33.333 0 -63.333 6.5 -90 19.5s-49.334 30.5 -68.001 52.5c-38 46 -57 102 -57 168c0 38 7.66699 75.333 23 112
s38.666 66.667 69.999 90c-35.333 38.667 -53 86.334 -53 143.001zM350.001 243.998c0 33.333 -10 65.333 -30 96s-48.333 46 -85 46c-38.667 0 -67.667 -15 -87 -45s-29 -61.667 -29 -95c0 -34 9.83301 -65.833 29.5 -95.5s48.834 -44.5 87.501 -44.5
c37.333 0 65.666 14.5 84.999 43.5s29 60.5 29 94.5zM168.001 584.998c0 -20.667 5.33301 -40.667 16 -60s28 -29 52 -29c22 0 38.667 9.5 50 28.5s17 38.5 17 58.5c0 19.333 -5.66699 39.333 -17 60s-28.333 31 -51 31c-24 0 -41.167 -10 -51.5 -30
s-15.5 -39.667 -15.5 -59z" />
    <glyph glyph-name="nine" unicode="9" horiz-adv-x="455" 
d="M442 526c0 -44.667 -9 -83.332 -27 -115.999s-37 -66.667 -57 -102l-176 -308h-121l164 288c-64.667 0.666992 -116 25 -154 73c-38 46 -57 101.667 -57 167c0 69.333 20.333 126.666 61 171.999c38.667 44.667 89 67 151 67c64.667 0 117.667 -24.667 159 -74
c38 -45.333 57 -101 57 -167zM228 661.002c-36 0 -63.167 -14.333 -81.5 -43s-27.5 -58.667 -27.5 -90s9.16699 -61.666 27.5 -90.999s45.5 -44 81.5 -44c35.333 0 62.5 14.167 81.5 42.5s28.5 58.166 28.5 89.499s-9.33301 61.833 -28 91.5s-46 44.5 -82 44.5z" />
    <glyph glyph-name="colon" unicode=":" horiz-adv-x="181" 
d="M81 442c19.333 0 35.833 -7.16699 49.5 -21.5s20.5 -31.5 20.5 -51.5c0 -19.333 -6.83301 -35.833 -20.5 -49.5s-30.167 -20.5 -49.5 -20.5s-36 6.83301 -50 20.5s-21 30.167 -21 49.5s7 36.333 21 51s30.667 22 50 22zM81 136c19.333 0 35.833 -7 49.5 -21
s20.5 -30.667 20.5 -50s-6.83301 -35.666 -20.5 -48.999s-30.167 -20 -49.5 -20s-36 6.66699 -50 20s-21 29.666 -21 48.999s7 36 21 50s30.667 21 50 21z" />
    <glyph glyph-name="semicolon" unicode=";" horiz-adv-x="181" 
d="M81 442c19.333 0 35.833 -7.16699 49.5 -21.5s20.5 -31.5 20.5 -51.5c0 -19.333 -6.83301 -35.833 -20.5 -49.5s-30.167 -20.5 -49.5 -20.5s-36 6.83301 -50 20.5s-21 30.167 -21 49.5s7 36.333 21 51s30.667 22 50 22zM81 131c17.333 0 32.5 -6.49902 45.5 -19.499
s19.5 -28.5 19.5 -46.5c0 -10 -2.33301 -20 -7 -30l-25 -99h-33v64c-18.667 0 -34.334 6.33301 -47.001 19s-19 28 -19 46c0 17.333 6.33301 32.666 19 45.999s28.334 20 47.001 20z" />
    <glyph glyph-name="equal" unicode="=" horiz-adv-x="418" 
d="M28 506h362v-106l-362 -1v107zM28 328h362v-106h-362v106z" />
    <glyph glyph-name="question" unicode="?" horiz-adv-x="480" 
d="M218 389c40 0 74.667 15.332 104 45.999c28.667 28.667 43 63.667 43 105c0 40.667 -14.333 76.334 -43 107.001c-29.333 30.667 -64 46 -104 46c-31.333 0 -59 -10.667 -83 -32c-22 -19.333 -37.333 -45.333 -46 -78l-89 36c16 52 41.333 93.667 76 125
c38.667 32.667 86 49 142 49c67.333 0 126 -25 176 -75c48 -50 72.333 -109.333 73 -178c0 -64 -20.333 -119 -61 -165c-42.667 -48 -95 -76.333 -157 -85v-84h-103v195c27.333 -8 51.333 -12 72 -12zM197 173.999c17.333 0 32.5 -6.83301 45.5 -20.5
s19.5 -29.167 19.5 -46.5c0 -18.667 -6.33301 -34.167 -19 -46.5s-28 -18.5 -46 -18.5c-18.667 0 -34.167 6.16699 -46.5 18.5s-18.5 27.833 -18.5 46.5c0 17.333 6.16699 32.833 18.5 46.5s27.833 20.5 46.5 20.5z" />
    <glyph glyph-name="at" unicode="@" horiz-adv-x="759" 
d="M343 204c23.333 0 44.667 11.332 64 33.999c23.333 26.667 35 59.334 35 98.001c0 26 -5.66699 47.333 -17 64c-14 22 -32.667 33 -56 33c-24 0 -45 -11 -63 -33c-24 -28 -36.333 -61 -37 -99c0 -23.333 5.66699 -44.333 17 -63c14.667 -22.667 33.667 -34 57 -34z
M376.001 513.999c23.333 0 45.333 -4.99805 66 -14.998v1v4h38.5h38.5v-150v-150c0 -19.333 4 -36.333 12 -51c8 -16.667 20 -25 36 -25c14 0 25.833 6.5 35.5 19.5s17.167 25.833 22.5 38.5c18.667 40.667 28 83.667 28 129c0 74.667 -27 140 -81 196
c-54 54.667 -118.667 82 -194 82c-76 0 -140.333 -27.333 -193 -82c-54.667 -54.667 -82 -121.334 -82 -200.001c0 -76 26 -140.333 78 -193c52.667 -54.667 117 -82 193 -82c19.333 0 37.333 2 54 6c23.333 -35.333 55.333 -55.333 96 -60c-41.333 -22 -89 -33 -143 -33
c-100 0 -186.667 35 -260 105c-71.333 72 -107 158.667 -107 260c0 100.667 35.667 186.667 107 258s158 107 260 107c100.667 0 186.667 -35.667 258 -107c71.333 -70.667 107 -156.667 107 -258c0 -74.667 -18.667 -140 -56 -196c-14.667 -24 -33.5 -44.833 -56.5 -62.5
s-48.5 -26.5 -76.5 -26.5c-38.667 0 -68.667 16.333 -90 49c-14.667 20.667 -22.667 47 -24 79c-30.667 -23.333 -64 -35 -100 -35c-48 0 -86.333 19 -115 57c-28 34 -41 74.333 -39 121c0 61.333 20.667 113.666 62 156.999c38 38 79.667 57 125 57z" />
    <glyph glyph-name="A" unicode="A" horiz-adv-x="686" 
d="M7 0l312 754h48l312 -754h-114l-64 154h-318l-62 -154h-114zM458 258l-115 280l-115 -280h230z" />
    <glyph glyph-name="B" unicode="B" horiz-adv-x="594" 
d="M343 108c38 0 69.668 13.668 95.001 41.001c26 26.667 38.667 59 38 97c0 37.333 -12.667 69.666 -38 96.999c-26 26.667 -57.667 40 -95 40h-93v109h6c17.333 0.666992 33 8 47 22c14 14.667 21 33 21 55c0 19.333 -7 37 -21 53c-14.667 16 -32.334 24 -53.001 24h-118
v-538h211zM343.001 0.000976562h-315v376.5v377.5h222c49.333 0 91.333 -18 126 -54c35.333 -37.333 53 -81 53 -131c0 -29.333 -7 -58.333 -21 -87c38.667 -12 73 -33 103 -63c46 -48 69.333 -105.667 70 -173c0 -68.667 -23.333 -126.667 -70 -174
c-47.333 -48 -103.333 -72 -168 -72z" />
    <glyph glyph-name="C" unicode="C" horiz-adv-x="737" 
d="M657 101c-37.333 -38 -79.333 -66.1641 -126 -84.4971s-93.667 -27.5 -141 -27.5c-48 0 -95.333 9.16699 -142 27.5s-88 46.5 -124 84.5c-37.333 38 -65 81.167 -83 129.5s-27 97.5 -27 147.5c0 49.333 9 97.666 27 144.999s45.667 90.666 83 129.999
c36 37.333 77.333 65.666 124 84.999s94 29 142 29c102.667 0 191.667 -38 267 -114c23.333 -26 43.333 -53.333 60 -82l-92 -54c-14 23.333 -28.333 42.333 -43 57c-52.667 54.667 -116.667 82 -192 82c-74.667 0 -138 -27.333 -190 -82
c-52.667 -54.667 -79 -120.667 -79 -198c0 -36 6.16699 -71.167 18.5 -105.5s32.5 -64.833 60.5 -91.5c52.667 -54.667 116 -82 190 -82s138 27.333 192 82z" />
    <glyph glyph-name="D" unicode="D" horiz-adv-x="647" 
d="M326 754c102 0 178.667 -39.332 230 -117.999s77 -165.334 77 -260.001c-0.666992 -94.667 -26.5 -181 -77.5 -259s-127.5 -117 -229.5 -117h-298v376.5v377.5h298zM326 646.001l-190 -0.000976562v-538h190c66 0 115.667 28 149 84s50 117.333 50 184
s-16.667 128.334 -50 185.001s-83 85 -149 85z" />
    <glyph glyph-name="E" unicode="E" horiz-adv-x="502" 
d="M136 492h339v-109h-339v-275h329v-108h-437v754h447v-108h-339v-154z" />
    <glyph glyph-name="F" unicode="F" horiz-adv-x="501" 
d="M132 492h314v-109h-314v-191.5v-191.5h-104v754h446v-108h-342v-154z" />
    <glyph glyph-name="G" unicode="G" horiz-adv-x="745" 
d="M636 642l-76 -77.002c-50 62 -112 93 -186 93c-68.667 0 -127.667 -26.667 -177 -80c-50 -55.333 -75 -122.666 -75 -201.999c0 -78 25 -144.667 75 -200c48 -54 107 -80.667 177 -80c67.333 0 126 26.667 176 80c22 25.333 40.667 56 56 92h-232v108h178.5h179.5
c0 -52.667 -9.33301 -102.5 -28 -149.5s-43.667 -87.833 -75 -122.5c-36 -38.667 -76.167 -67.5 -120.5 -86.5s-89.166 -28.5 -134.499 -28.5c-47.333 0 -93.333 9.5 -138 28.5s-84.334 47.833 -119.001 86.5c-34 37.333 -59.667 79.833 -77 127.5s-26 96.5 -26 146.5
c0 49.333 8.5 97.5 25.5 144.5s43.167 89.5 78.5 127.5c34 38.667 73.333 67.834 118 87.501s90.667 29.5 138 29.5c50.667 0 98.5 -11.167 143.5 -33.5s84.5 -52.833 118.5 -91.5z" />
    <glyph glyph-name="H" unicode="H" horiz-adv-x="547" 
d="M28 754h105v-253h282v253h104v-754h-104v396h-282v-396h-105v754z" />
    <glyph glyph-name="I" unicode="I" 
d="M28 754h105v-754h-105v754z" />
    <glyph glyph-name="J" unicode="J" horiz-adv-x="601" 
d="M581 282c0 -97.333 -30 -170.5 -90 -219.5s-124.667 -73.5 -194 -73.5c-68.667 0 -130.667 23.833 -186 71.5s-83 121.5 -83 221.5v10l104 27v-37c0 -64 17.167 -111.333 51.5 -142s72.833 -46 115.5 -46c43.333 0 83.5 16 120.5 48s55.5 78.667 55.5 140v472h106v-472z
" />
    <glyph glyph-name="K" unicode="K" horiz-adv-x="677" 
d="M28 754h110v-303l233 303h141l-245 -318l404 -394l-120 -42l-354 347l-59 -78v-269h-110v754z" />
    <glyph glyph-name="L" unicode="L" horiz-adv-x="450" 
d="M133 106h310v-106h-207.5h-207.5v754h105v-648z" />
    <glyph glyph-name="M" unicode="M" horiz-adv-x="765" 
d="M662 754l37.001 -0.000976562h39v-377.5v-376.5h-54.5h-51.5v214v215c-33.333 -72 -66 -143.667 -98 -215l-96 -214h-56h-54c-33.333 71.333 -66.166 142.666 -98.499 213.999s-64.5 143 -96.5 215v-215v-214h-54h-51v376.5v377.5h36.5h36.5
c47.333 -104 94.166 -207.667 140.499 -311s93.166 -206.666 140.499 -309.999c47.333 102.667 94 205.834 140 309.501s92.667 207.5 140 311.5z" />
    <glyph glyph-name="N" unicode="N" horiz-adv-x="634" 
d="M501 754h106v-754h-56h-50l-368 546v-546h-105v754h105l368 -555v555z" />
    <glyph glyph-name="O" unicode="O" horiz-adv-x="755" 
d="M635 101c-71.333 -74.667 -157 -112 -257 -112c-100.667 0 -186.334 37.333 -257.001 112c-71.333 74.667 -107 166.334 -107 275.001c0 108 35.667 199.667 107 275c70.667 76.667 156.334 115.334 257.001 116.001c100 0 185.667 -38.667 257 -116
c71.333 -74.667 107 -166.334 107 -275.001s-35.667 -200.334 -107 -275.001zM561 178c51.333 54 77 120 77 198c0 78.667 -25.667 145.334 -77 200.001c-50.667 54.667 -111.667 82 -183 82c-72 0 -133.333 -27.333 -184 -82s-76 -121.334 -76 -200.001
s25.333 -144.667 76 -198c50.667 -55.333 112 -83.333 184 -84c70 0.666992 131 28.667 183 84z" />
    <glyph glyph-name="P" unicode="P" horiz-adv-x="512" 
d="M233 754c72 0 134.667 -26.333 188 -79c52 -55.333 78 -120 78 -194c0 -74.667 -26 -139.667 -78 -195c-43.333 -44.667 -89 -69 -137 -73s-98.333 -6 -151 -6v-207h-105v754h102h103zM233 642h-99.999v-323c37.333 0 74.666 0.5 111.999 1.5s71.333 16.833 102 47.5
c31.333 32.667 47 70.334 47 113.001c0 41.333 -15.667 78.666 -47 111.999c-31.333 32.667 -69.333 49 -114 49z" />
    <glyph glyph-name="Q" unicode="Q" horiz-adv-x="755" 
d="M635 101c-71.333 -74.667 -157 -112 -257 -112c-100.667 0 -186.334 37.333 -257.001 112c-71.333 74.667 -107 166.334 -107 275.001c0 108 35.667 199.667 107 275c70.667 76.667 156.334 115.334 257.001 116.001c100 0 185.667 -38.667 257 -116
c71.333 -74.667 107 -166.334 107 -275.001s-35.667 -200.334 -107 -275.001zM567 183c47.333 54 71 118.333 71 193c0 78.667 -25.667 145.334 -77 200.001c-50.667 54.667 -111.667 82 -183 82c-72 0 -133.333 -27.333 -184 -82s-76 -121.334 -76 -200.001
s25.333 -144.667 76 -198c50.667 -55.333 112 -83.333 184 -84c34 0 68.667 8 104 24l-178 182l77 74z" />
    <glyph glyph-name="R" unicode="R" horiz-adv-x="559" 
d="M28 754l70.998 -0.000976562h72c60 0 113.333 -22 160 -66c44.667 -44.667 66.667 -98.667 66 -162c0 -67.333 -25 -123.666 -75 -168.999c38.667 -54 78 -108 118 -162s80 -107.333 120 -160c-17.333 -5.33301 -35.166 -10.833 -53.499 -16.5
s-36.166 -11.5 -53.499 -17.5c-50 64 -99.5 128.5 -148.5 193.5s-98.167 129.833 -147.5 194.5c19.333 8 36.5 15 51.5 21s28.5 14.667 40.5 26c28 24 41.667 54 41 90c0 32.667 -12 61 -36 85c-23.333 23.333 -51 35 -83 35h-19h-17v-323.5v-322.5h-53.5h-53.5v376.5v377.5
z" />
    <glyph glyph-name="S" unicode="S" horiz-adv-x="476" 
d="M462 219c0 -64.667 -21.667 -119.002 -65 -163.002c-44.667 -44.667 -97.334 -67 -158.001 -67c-62 0 -115.333 22.333 -160 67c-43.333 44.667 -65 99 -65 163h100c0 -35.333 12.333 -65.333 37 -90c23.333 -25.333 52.666 -37.666 87.999 -36.999
c33.333 0 62.333 12.333 87 37c24 25.333 36 55.333 36 90c0 34 -12 64.333 -36 91c-27.333 27.333 -60 41 -98 41h-13c-3.33301 0 -6.33301 -0.333008 -9 -1c-40 0 -78.667 19.333 -116 58c-40 40.667 -59.667 90.334 -59 149.001c0 56.667 19.667 105.667 59 147
c38.667 40.667 86.334 61 143.001 61c33.333 0 64.333 -7.83301 93 -23.5s52.334 -36.5 71.001 -62.5c14.667 -19.333 25.334 -42 32.001 -68l-97 -28c-2.66699 9.33301 -7.66699 21 -15 35c-22 29.333 -50 44 -84 44c-28 0 -52 -10 -72 -30
c-19.333 -21.333 -29 -46.333 -29 -75c0 -29.333 9.66699 -54.333 29 -75c25.333 -26.667 56.666 -40 93.999 -40h13c3.33301 0 6.33301 0.333008 9 1c40.667 0 80.667 -20 120 -60c43.333 -45.333 65 -100 65 -164z" />
    <glyph glyph-name="T" unicode="T" horiz-adv-x="523" 
d="M7 754h254h256v-55v-52h-211v-647h-53h-53v647h-193v52v55z" />
    <glyph glyph-name="U" unicode="U" horiz-adv-x="622" 
d="M125 283c0 -54 18.666 -98.333 55.999 -133c35.333 -37.333 78.666 -56 129.999 -56c50.667 0 94.334 18.667 131.001 56c36 36 54 80.333 54 133v471h105v-471c0 -81.333 -28.667 -150.666 -86 -207.999c-54.667 -56.667 -122.667 -85.334 -204 -86.001
c-81.333 0 -149.666 28.667 -204.999 86c-26 26 -46.667 56.833 -62 92.5s-23 74.167 -23 115.5v471h104v-471z" />
    <glyph glyph-name="V" unicode="V" horiz-adv-x="686" 
d="M7 754h114l222 -546l222 546h114l-312 -765h-48z" />
    <glyph glyph-name="W" unicode="W" horiz-adv-x="984" 
d="M493 297l-126 -308h-48l-312 765h114l222 -546l93 228l-130 318h113l223 -546l223 546h113l-313 -765h-47z" />
    <glyph glyph-name="X" unicode="X" horiz-adv-x="547" 
d="M519 0l-58.001 -0.000976562h-58c-22 41.333 -43.667 83.666 -65 126.999s-42.666 86.333 -63.999 129c-22 -42.667 -43.833 -85.667 -65.5 -129s-43.167 -85.666 -64.5 -126.999h-58h-58c30.667 62.667 61.667 125.334 93 188.001l94 188l-94 188
c-31.333 62.667 -62.333 126 -93 190h58h58c21.333 -43.333 42.666 -86.333 63.999 -129s43.333 -85.334 66 -128.001c21.333 42.667 42.5 85.334 63.5 128.001s42.833 85.667 65.5 129h58h58c-31.333 -64 -62.666 -127.167 -93.999 -189.5s-62.333 -125.166 -93 -188.499
c30.667 -62.667 61.667 -125.334 93 -188.001z" />
    <glyph glyph-name="Y" unicode="Y" horiz-adv-x="500" 
d="M197 0v425l-190 329h121l122 -211l122 211h121l-190 -329v-425h-106z" />
    <glyph glyph-name="Z" unicode="Z" horiz-adv-x="466" 
d="M449 0h-435v53l153 308h-73v51.5v54.5h125l91 182h-292v105h435v-53l-117 -234h40v-54.5v-51.5h-91l-128 -255h292v-106z" />
    <glyph glyph-name="a" unicode="a" horiz-adv-x="430" 
d="M57 354c0.666992 49.333 18.833 89.166 54.5 119.499s78.167 45.5 127.5 45.5c44.667 0 84.334 -14.5 119.001 -43.5s52 -67.167 52 -114.5v-181.5v-179.5h-52.5h-51.5v9.5v11.5c-44.667 -22 -87.334 -32.667 -128.001 -32c-40 2 -77.333 15.5 -112 40.5
s-52 62.5 -52 112.5c0 55.333 22.5 100.333 67.5 135s93.833 52 146.5 52c28 0 54 -4.66699 78 -14v22.5v23.5c0 16.667 -7.5 29.334 -22.5 38.001s-29.833 13 -44.5 13c-19.333 0 -36.5 -5 -51.5 -15c-15.667 -10 -24.167 -24.333 -25.5 -43h-53h-52zM305.999 175
c0 17.333 -8.66699 29.833 -26 37.5s-34.333 11.5 -51 11.5c-25.333 -2 -50 -10.667 -74 -26s-36 -34 -36 -56c0 -16.667 8.16699 -29 24.5 -37s32.833 -11.667 49.5 -11c24 0.666992 48.833 8.5 74.5 23.5s38.5 34.167 38.5 57.5z" />
    <glyph glyph-name="b" unicode="b" horiz-adv-x="548" 
d="M282 -11c-56.667 0 -106.334 16.667 -149.001 50v-39h-105v754h105v-293c42.667 34 92.334 51 149.001 51c69.333 0 129 -25.333 179 -76c49.333 -50.667 74 -112.667 74 -186s-24.667 -135 -74 -185c-50 -50.667 -109.667 -76 -179 -76zM431 250
c0.666992 42.667 -13.666 79.333 -42.999 110s-64.666 46 -105.999 46c-40.667 0 -75.334 -15.333 -104.001 -46c-29.333 -29.333 -44.333 -66 -45 -110c0 -42.667 15 -78.667 45 -108c28.667 -30.667 63.334 -46 104.001 -46c41.333 0 76.666 15.333 105.999 46
c29.333 29.333 43.666 65.333 42.999 108z" />
    <glyph glyph-name="c" unicode="c" horiz-adv-x="509" 
d="M118 250c0 -42.667 14.667 -78.668 44 -108.001c30.667 -30.667 66 -46 106 -46c40.667 0 76.334 15.333 107.001 46c8 8 16 18.667 24 32l90 -55c-11.333 -20.667 -24.666 -38.667 -39.999 -54c-50 -50.667 -110.333 -76 -181 -76s-130.334 25.333 -179.001 76
c-50 50.667 -75 112.334 -75 185.001c0 72 25 134 75 186c49.333 50.667 109 76 179 76c70.667 0 131 -25.333 181 -76c14 -14.667 27.333 -32.667 40 -54l-90 -54c-4.66699 8 -12.667 18.667 -24 32c-30.667 30.667 -66.334 46 -107.001 46c-40 0 -75.333 -15.333 -106 -46
c-29.333 -30 -44 -66.667 -44 -110z" />
    <glyph glyph-name="d" unicode="d" horiz-adv-x="548" 
d="M267 -11c-70 0 -129.667 25.333 -179 76c-49.333 50 -74 111.667 -74 185s24.667 135.333 74 186s109 76 179 76c55.333 0 104.666 -17 147.999 -51v293h106v-754h-106v39c-43.333 -33.333 -92.666 -50 -147.999 -50zM118 250c0 -42.667 14.332 -78.667 42.999 -108
c28.667 -30.667 64 -46 106 -46c40 0 75 15.333 105 46c28.667 29.333 43 65.333 43 108s-14.333 79.334 -43 110.001c-30.667 30.667 -65.667 46 -105 46c-41.333 0 -76.666 -15.333 -105.999 -46c-28.667 -30.667 -43 -67.334 -43 -110.001z" />
    <glyph glyph-name="e" unicode="e" horiz-adv-x="519" 
d="M382 329c-11.333 23.333 -27.668 43 -49.001 59s-45.666 24 -72.999 24c-28 0 -52.833 -8 -74.5 -24s-38.167 -35.667 -49.5 -59h246zM120.998 228c3.33301 -37.333 16.999 -68 40.999 -92c28 -31.333 63.333 -47 106 -47c47.333 0 84.333 21.333 111 64l90 -57
c-23.333 -33.333 -52.5 -59.5 -87.5 -78.5s-72.833 -28.5 -113.5 -28.5c-72 0 -131.667 25.333 -179 76c-50 50 -75 111.667 -75 185c0 71.333 23 132.333 69 183c48 52.667 107 79 177 79c68.667 0 127.334 -26.333 176.001 -79c20.667 -24 37.5 -51.5 50.5 -82.5
s19.5 -64.5 19.5 -100.5v-12v-10h-193h-192z" />
    <glyph glyph-name="f" unicode="f" horiz-adv-x="284" 
d="M28 465c0 104 30.334 178.167 91.001 222.5s135.334 66.5 224.001 66.5v-107c-52.667 -2.66699 -97.834 -11.167 -135.501 -25.5s-61.834 -53.833 -72.501 -118.5h122v-106h-125v-397h-104v465z" />
    <glyph glyph-name="g" unicode="g" horiz-adv-x="461" 
d="M78 131c-41.333 40 -62.332 90 -62.999 150c0 58.667 21 108.667 63 150c30.667 30.667 67.667 51.167 111 61.5s83 29.166 119 56.499l71 -77c-5.33301 -4 -10.166 -7.5 -14.499 -10.5s-8.83301 -5.83301 -13.5 -8.5c9.33301 -7.33301 18.333 -14.666 27 -21.999
c41.333 -41.333 62 -91.333 62 -150c0 -60 -20.667 -110 -62 -150c-41.333 -41.333 -91.333 -62.333 -150 -63h-3c-4.66699 -22 -7 -42 -7 -60h10.5h11.5c78.667 0 145.334 -25.333 200.001 -76c55.333 -52 83.333 -116 84 -192c0 -74.667 -28.333 -138.334 -85 -191.001
c-54 -52 -119.667 -78 -197 -78c-78.667 0 -145.334 26 -200.001 78c-55.333 52.667 -83.333 116.334 -84 191.001c0 76 28 140 84 192c10 11.333 21 20.833 33 28.5c11.333 7.66699 23.666 14.834 36.999 21.501c0 37.333 4.33301 74.666 13 111.999
c-16.667 8.66699 -32.334 21 -47.001 37zM419.001 -260c0 46 -17.333 85 -52 117c-34 32.667 -76.333 49 -127 49c-50 0 -91.667 -16.333 -125 -49c-35.333 -31.333 -53 -70.333 -53 -117c0 -45.333 17.667 -84 53 -116c33.333 -32.667 75 -49 125 -49s92.333 16.333 127 49
c34.667 32 52 70.667 52 116zM336.001 281c0 28 -10.666 53.332 -31.999 75.999c-22 20.667 -47.333 31 -76 31c-29.333 0 -55 -10.333 -77 -31c-21.333 -21.333 -32 -46.666 -32 -75.999c0 -31.333 10.667 -57 32 -77c21.333 -21.333 47 -32 77 -32
c29.333 0 54.666 10.667 75.999 32c21.333 22 32 47.667 32 77z" />
    <glyph glyph-name="h" unicode="h" horiz-adv-x="498" 
d="M253 512c61.333 0 114 -22.668 158 -68.001c44.667 -48 67 -104 67 -168v-276h-106v276c0 36 -11.333 65.667 -34 89c-24 25.333 -52.333 38 -85 38c-34 0 -62.333 -12 -85 -36c-23.333 -25.333 -35 -55.666 -35 -90.999v-276h-105v754h105v-278
c35.333 24 75.333 36 120 36z" />
    <glyph glyph-name="i" unicode="i" 
d="M81 732c19.333 0 35.833 -7 49.5 -21s20.5 -30.667 20.5 -50s-6.83301 -36 -20.5 -50s-30.167 -21 -49.5 -21s-36 7 -50 21s-21 30.667 -21 50s7 36 21 50s30.667 21 50 21zM28 501h105v-501h-105v501z" />
    <glyph glyph-name="j" unicode="j" 
d="M81 732c19.333 0 35.833 -7 49.5 -21s20.5 -30.667 20.5 -50s-6.83301 -36 -20.5 -50s-30.167 -21 -49.5 -21s-36 7 -50 21s-21 30.667 -21 50s7 36 21 50s30.667 21 50 21zM133 38c0 -78 -21 -141.5 -63 -190.5s-90.667 -81.167 -146 -96.5v111
c54 24 84.833 60.667 92.5 110s11.5 99 11.5 149v380h105v-463z" />
    <glyph glyph-name="k" unicode="k" horiz-adv-x="516" 
d="M28 754h105v-453l114 200h121l-130 -227l272 -274h-149l-228 229v-229h-105v754z" />
    <glyph glyph-name="l" unicode="l" 
d="M28 754h105v-754h-105v754z" />
    <glyph glyph-name="m" unicode="m" horiz-adv-x="761" 
d="M740 272l0.00195312 -272.002h-107v272c0 43.333 -10.167 74.833 -30.5 94.5s-41.833 28.834 -64.5 27.501c-24 -0.666992 -45.833 -11.667 -65.5 -33s-29.5 -51 -29.5 -89v-272h-105v267c0 41.333 -11 72.833 -33 94.5s-45.333 33.167 -70 34.5
c-26 0 -49.5 -10.167 -70.5 -30.5s-31.5 -51.5 -31.5 -93.5v-272h-105v500h105v-21c34 23.333 69 34.333 105 33c59.333 0 109.666 -27 150.999 -81c49.333 48 102.666 72 159.999 72c50.667 0 95.167 -20.667 133.5 -62s57.5 -97.666 57.5 -168.999z" />
    <glyph glyph-name="n" unicode="n" horiz-adv-x="498" 
d="M253 512c62 0 114.666 -23.333 157.999 -70c44.667 -48 67 -105 67 -171v-271h-106v271c0 35.333 -11.333 65.666 -34 90.999c-24 25.333 -52.333 38 -85 38c-33.333 0 -61.666 -12.667 -84.999 -38s-35 -55.666 -35 -90.999v-271h-105v501h105v-26
c36.667 24.667 76.667 37 120 37z" />
    <glyph glyph-name="o" unicode="o" horiz-adv-x="537" 
d="M418 250c0 42.667 -14.334 79.333 -43.001 110c-29.333 30.667 -65 46 -107 46c-41.333 0 -76.666 -15.333 -105.999 -46c-29.333 -31.333 -44 -68 -44 -110c0 -41.333 14.667 -77.333 44 -108c28.667 -30.667 64 -46 106 -46c41.333 0 77 15.333 107 46
c28.667 29.333 43 65.333 43 108zM523.999 249.999c0 -73.333 -25 -135 -75 -185c-48 -50.667 -108.333 -76 -181 -76c-72 0 -131.667 25.333 -179 76c-50 50 -75 111.667 -75 185c0 72 25 134 75 186c49.333 50.667 109 76 179 76c70.667 0 131 -25.333 181 -76
c50 -52 75 -114 75 -186z" />
    <glyph glyph-name="p" unicode="p" horiz-adv-x="548" 
d="M282 512c70.667 0 130.333 -25.666 179 -76.999c49.333 -50.667 74 -112.334 74 -185.001c0 -74 -24.667 -136 -74 -186s-109 -75 -179 -75c-56.667 0 -106.334 16.667 -149.001 50v-292h-105v753h105v-39c44.667 34 94.334 51 149.001 51zM430.999 250.001
c0.666992 42.667 -13.665 79.333 -42.998 110c-28.667 29.333 -64 44 -106 44c-41.333 0 -76 -14.667 -104 -44c-29.333 -29.333 -44.333 -66 -45 -110c0 -43.333 15 -80 45 -110c28 -29.333 62.667 -44 104 -44s76.666 14.667 105.999 44
c29.333 30 43.666 66.667 42.999 110z" />
    <glyph glyph-name="q" unicode="q" horiz-adv-x="548" 
d="M267 512c54 0 103.332 -17 147.999 -51v39h106v-753h-106v292c-43.333 -33.333 -92.666 -50 -147.999 -50c-71.333 0 -131 25 -179 75c-49.333 50 -74 112 -74 186c0 72 24.667 133.667 74 185c48 51.333 107.667 77 179 77zM117.999 250c0 -43.333 14.333 -80 43 -110
c28 -29.333 63.333 -44 106 -44c40.667 0 75.667 14.667 105 44c28.667 29.333 43 66 43 110c0 42.667 -14.333 79.334 -43 110.001c-29.333 29.333 -64.333 44 -105 44c-42.667 0 -78 -14.667 -106 -44c-28.667 -30.667 -43 -67.334 -43 -110.001z" />
    <glyph glyph-name="r" unicode="r" horiz-adv-x="340" 
d="M133 501l0.000976562 -75.001c59.333 42.667 123.666 71.334 192.999 86.001v-108c-76.667 -22 -141 -61.667 -193 -119v-285h-105v501h105z" />
    <glyph glyph-name="s" unicode="s" horiz-adv-x="386" 
d="M193 88c20.667 0 39.335 6.33105 56.002 18.998c12 10 18 23 18 39c0 14 -6 26.333 -18 37c-25.333 21.333 -52.333 30 -81 26s-58.667 9.33301 -90 40c-33.333 28.667 -50 66.334 -50 113.001c0 45.333 16.667 83.333 50 114c32.667 29.333 71 44.333 115 45
c47.333 0 86.666 -16 117.999 -48s47 -71.667 47 -119h-105c0 40 -20 60 -60 60c-17.333 0 -32 -6 -44 -18c-10 -9.33301 -15.333 -20.666 -16 -33.999c0 -14 5.33301 -25 16 -33c17.333 -17.333 42.666 -26.333 75.999 -27s64 -13 92 -37
c37.333 -33.333 55.666 -73 54.999 -119c0 -47.333 -18.333 -87.333 -55 -120c-37.333 -30.667 -78.666 -45.667 -123.999 -45c-50.667 0.666992 -93.167 16.667 -127.5 48s-51.5 73 -51.5 125h105c0 -22 7 -38.5 21 -49.5s31.667 -16.5 53 -16.5z" />
    <glyph glyph-name="t" unicode="t" horiz-adv-x="408" 
d="M260 -11c-62.667 0 -115.666 23 -158.999 69c-44.667 45.333 -66.667 102.333 -66 171v165h-14v107h14v253h105v-253h248v-107h-248v-165c0 -36.667 11.667 -67 35 -91c23.333 -25.333 51.666 -38 84.999 -38c16 0 33.333 4.66699 52 14l42 -104
c-32 -14 -63.333 -21 -94 -21z" />
    <glyph glyph-name="u" unicode="u" horiz-adv-x="491" 
d="M471 231c0 -66.667 -22.3311 -123.667 -66.998 -171c-22 -25.333 -46.833 -43.5 -74.5 -54.5s-55.5 -16.5 -83.5 -16.5c-64 0 -116.667 23 -158 69c-44.667 47.333 -67 105 -67 173v270h105v-270c0 -37.333 11.667 -68 35 -92c23.333 -25.333 51.666 -38 84.999 -38
c32.667 0 61 12.667 85 38c23.333 24 34.666 54.667 33.999 92v270h106v-270z" />
    <glyph glyph-name="v" unicode="v" horiz-adv-x="466" 
d="M121 501l111 -277l112 277h116l-210 -512h-36l-207 512h114z" />
    <glyph glyph-name="w" unicode="w" horiz-adv-x="751" 
d="M121 501l111 -277l112 277h53l117 -290l118 290h112l-206 -512h-46l-121 297l-121 -297h-36l-207 512h114z" />
    <glyph glyph-name="x" unicode="x" horiz-adv-x="422" 
d="M276 0l-65 131l-65 -131h-118l125 250l-125 251h118l65 -130l65 130h118l-125 -251l125 -250h-118z" />
    <glyph glyph-name="y" unicode="y" horiz-adv-x="515" 
d="M74 -274l159 384l-226 391h121l155 -270l113 270h112l-329 -794z" />
    <glyph glyph-name="z" unicode="z" horiz-adv-x="436" 
d="M408 0h-373v53l107 164h-64v51v53h132l48 75h-230v105h373v-52l-82 -128h41v-52.5v-51.5h-110l-72 -111h230v-106z" />
    <glyph glyph-name="exclamdown" unicode="&#xa1;" horiz-adv-x="158" 
d="M79 582c-18.667 0 -34.167 6.16699 -46.5 18.5s-18.5 27.833 -18.5 46.5c0 17.333 6.16699 32.5 18.5 45.5s27.833 19.5 46.5 19.5c17.333 0 32.5 -6.33301 45.5 -19s19.5 -28 19.5 -46c0 -18.667 -6.5 -34.167 -19.5 -46.5s-28.167 -18.5 -45.5 -18.5zM131 514v-553
h-103v553h103z" />
    <glyph glyph-name="acute" unicode="&#xb4;" horiz-adv-x="210" 
d="M81 679h159l-105 -107h-107z" />
    <glyph glyph-name="questiondown" unicode="&#xbf;" horiz-adv-x="480" 
d="M264 365c-41.333 0 -76.6631 -15.333 -105.996 -46c-28.667 -30.667 -43 -65.667 -43 -105c0 -41.333 14.333 -77 43 -107c28.667 -30.667 64 -46 106 -46c31.333 0 58.666 10.667 81.999 32c23.333 20.667 38.666 46.667 45.999 78l89 -36
c-16.667 -52.667 -42.334 -94.334 -77.001 -125.001c-40 -32 -86.667 -48 -140 -48c-69.333 0 -128 24.333 -176 73c-49.333 50 -74 109.667 -74 179c0 60 20.667 115 62 165c41.333 48 93.333 76.333 156 85v85h104v-196c-12.667 2.66699 -24.834 5.33398 -36.501 8.00098
s-23.5 4 -35.5 4zM285.003 581c-18.667 0 -34.5 6.16699 -47.5 18.5s-19.5 27.833 -19.5 46.5c0 17.333 6.5 32.5 19.5 45.5s28.833 19.5 47.5 19.5c17.333 0 32.5 -6.5 45.5 -19.5s19.5 -28.167 19.5 -45.5c0 -18.667 -6.5 -34.167 -19.5 -46.5s-28.167 -18.5 -45.5 -18.5z
" />
    <glyph glyph-name="Ntilde" unicode="&#xd1;" horiz-adv-x="634" 
d="M469 810c-49.333 23.333 -95.834 29.168 -139.501 17.501s-95.167 -17.5 -154.5 -17.5c-12 16.667 -24 34 -36 52s-23.667 36.333 -35 55c71.333 0 134.833 5.66699 190.5 17s113.834 5.66602 174.501 -17.001v-55v-52zM500.999 754.002h106v-754h-56h-50l-368 546v-546
h-105v754h105l368 -555v555z" />
    <glyph glyph-name="aacute" unicode="&#xe1;" horiz-adv-x="423" 
d="M306 172c0 17.333 -8.66699 29.832 -26 37.499s-34.333 10.834 -51 9.50098c-25.333 -0.666992 -50 -8.66699 -74 -24s-36 -34 -36 -56c0 -16.667 8.16699 -29 24.5 -37s32.833 -11.333 49.5 -10c24 0 48.833 7.5 74.5 22.5s38.5 34.167 38.5 57.5zM57 349.999
c0.666992 49.333 18.832 89.499 54.499 120.499s78.167 46.5 127.5 46.5c44.667 0 84.334 -14.833 119.001 -44.5s52 -68.167 52 -115.5v-180.5v-177.5h-52.5h-51.5v8.5v10.5c-41.333 -22 -84 -32.667 -128 -32c-40 2 -77.333 15.5 -112 40.5s-52 62.167 -52 111.5
c0 55.333 22.5 100.5 67.5 135.5s93.833 52.5 146.5 52.5c24 0 50 -4.66699 78 -14v22.5v22.5c0 16.667 -7.5 29.667 -22.5 39s-29.833 14 -44.5 14c-19.333 0 -36.5 -5.16699 -51.5 -15.5c-15.667 -10.333 -24.167 -25.166 -25.5 -44.499h-53h-52zM248.998 678.998h159
l-107 -107h-107z" />
    <glyph glyph-name="ccedilla" unicode="&#xe7;" horiz-adv-x="516" 
d="M253 -172h-160l106 107h107zM118 250c0 -41.333 14.667 -77.334 44 -108.001c30.667 -30.667 66 -46 106 -46c40.667 0 76.334 15.333 107.001 46c8 8 16 18.667 24 32l90 -55c-11.333 -20.667 -24.666 -38.667 -39.999 -54c-50 -50.667 -110.333 -76 -181 -76
s-130.334 25.333 -179.001 76c-50 50.667 -75 112.334 -75 185.001c0 72 25 134 75 186c49.333 50.667 109 76 179 76c70.667 0 131 -25.333 181 -76c16 -18.667 29.333 -36.667 40 -54l-90 -54c-4.66699 8 -12.667 18.667 -24 32c-30.667 30.667 -66.334 46 -107.001 46
c-40 0 -75.333 -15.333 -106 -46c-29.333 -30 -44 -66.667 -44 -110z" />
    <glyph glyph-name="eacute" unicode="&#xe9;" horiz-adv-x="519" 
d="M276 679h160l-107 -107h-107zM121 228c3.33301 -37.333 16.999 -68 40.999 -92c28 -31.333 63.333 -47 106 -47c47.333 0 84.333 21.333 111 64l90 -57c-23.333 -33.333 -52.5 -59.5 -87.5 -78.5s-72.833 -28.5 -113.5 -28.5c-72 0 -131.667 25.333 -179 76
c-50 50 -75 111.667 -75 185c0 71.333 23 132.333 69 183c48 52.667 107 79 177 79c68.667 0 127.334 -26.333 176.001 -79c20.667 -24 37.5 -51.5 50.5 -82.5s19.5 -64.5 19.5 -100.5v-12v-10h-193h-192zM381.999 329c-11.333 23.333 -27.668 43 -49.001 59
s-45.666 24 -72.999 24c-28 0 -52.833 -8 -74.5 -24s-38.167 -35.667 -49.5 -59h246z" />
    <glyph glyph-name="iacute" unicode="&#xed;" horiz-adv-x="163" 
d="M81 679h159l-105 -107h-107zM28 501h105v-501h-105v501z" />
    <glyph glyph-name="ntilde" unicode="&#xf1;" horiz-adv-x="498" 
d="M253 512c62 0 114.666 -23.333 157.999 -70c44.667 -48 67 -105 67 -171v-271h-106v271c0 35.333 -11.333 65.666 -34 90.999c-24 25.333 -52.333 38 -85 38c-33.333 0 -61.666 -12.667 -84.999 -38s-35 -55.666 -35 -90.999v-271h-105v501h105v-26
c36.667 24.667 76.667 37 120 37zM80.999 554v52.501v54.5c56.667 0 113.667 9 171 27s115 9 173 -27v-54v-53c-58.667 37.333 -116.5 46.666 -173.5 27.999s-113.833 -28 -170.5 -28z" />
    <glyph glyph-name="oacute" unicode="&#xf3;" horiz-adv-x="537" 
d="M269 512v-0.000976562c69.333 0 129.333 -25.333 180 -76c50 -52 75 -113.667 75 -185v0v-1v0v0c0 -72 -25 -133.667 -75 -185c-49.333 -50 -109.333 -75 -180 -75v-1v0h-1v1c-71.333 0 -131 25 -179 75c-50 50.667 -75 112.334 -75 185.001v0v0v0v0c0 72 25 134 75 186
c49.333 50.667 109 76 179 76v0h1zM269 411.999v-0.000976562h-1v0c-41.333 0 -76.666 -15.667 -105.999 -47c-29.333 -33.333 -44 -71.666 -44 -114.999h1v0v0h-1c0 -43.333 14.667 -81.333 44 -114c29.333 -31.333 64.666 -47 105.999 -47v0h1v0v0
c40 0 75.333 15.667 106 47c29.333 30.667 44 68.667 44 114h-1v0v1h1c0 44.667 -14.667 82.667 -44 114c-30.667 31.333 -66 47 -106 47zM285 678.998h159l-105 -107h-107z" />
    <glyph glyph-name="uacute" unicode="&#xfa;" horiz-adv-x="491" 
d="M262 679h160l-107 -107h-107zM126 501l0.00292969 -276.001v0h-1c0 -35.333 12 -65 36 -89c21.333 -25.333 49.666 -37.666 84.999 -36.999v0v0v0v0c32.667 0 61 12 85 36c23.333 24 34.666 54 33.999 90v0v0v276h106v-276v0h-2c0 -66 -21.667 -122 -65 -168
c-43.333 -44.667 -96 -67 -158 -67v-1v0v0v1c-62.667 0 -115.334 22.333 -158.001 67c-44.667 45.333 -67 101.333 -67 168v0v0v276h105z" />
    <glyph glyph-name="glyph1" horiz-adv-x="55" 
 />
    <glyph glyph-name="glyph2" horiz-adv-x="55" 
 />
    </font>
</defs>
</svg>
